<svg width="299" height="323" viewBox="0 0 299 323" fill="none" xmlns="http://www.w3.org/2000/svg">
<g clip-path="url(#clip0)">
<path d="M280.363 169.136L271.979 183.503C266.687 192.575 257.484 198.102 247.567 198.162L51.177 199.36C41.2596 199.42 31.9898 194.007 26.5876 185L18.0287 170.736C13.4474 163.108 13.3876 153.306 17.8755 145.622L26.2598 131.255C31.4571 122.345 40.1083 116.661 52.0822 116.588C51.7293 58.7369 94.7754 11.5753 148.228 11.2493C201.681 10.9232 245.299 57.5563 245.652 115.407C257.556 115.334 266.307 120.849 271.651 129.758L280.21 144.022C284.791 151.65 284.851 161.453 280.363 169.136V169.136Z" fill="#EA7380"/>
<path d="M245.652 115.407L52.0828 116.588C51.7299 58.7369 94.7759 11.5753 148.229 11.2493C201.681 10.9232 245.299 57.5563 245.652 115.407Z" fill="#EA7380"/>
<path d="M150.248 25.6119C110.884 34.2354 77.9883 69.1244 73.0827 116.459L52.0828 116.588C51.7284 58.4945 95.1327 11.1949 148.875 11.2479C156.91 11.2558 158.121 23.8865 150.248 25.6119V25.6119Z" fill="#F19DA6"/>
<path d="M248.074 115.412C256.79 115.699 256.523 129.892 247.804 129.944C195.445 130.26 75.1358 130.996 75.0348 130.996C65.1174 131.057 55.9144 136.583 50.6224 145.655L42.2381 160.023C37.7443 167.706 37.8041 177.508 42.3913 185.136C45.8565 190.909 39.414 197.558 34.2182 193.588C28.4732 189.198 27.0548 185.778 18.0287 170.736C13.4474 163.108 13.3877 153.306 17.8755 145.622L26.2598 131.255C31.5518 122.183 40.7548 116.657 50.6722 116.596C52.0332 116.588 247.285 115.386 248.074 115.412V115.412Z" fill="#E08F98"/>
<path d="M295.74 150.904L279.668 124.126C273.895 114.508 264.924 108.027 254.789 105.857C249.952 46.8464 203.849 0.564124 148.165 0.903768C92.481 1.24341 46.9452 48.0847 42.8293 107.15C32.7211 109.443 23.8299 116.033 18.1749 125.721L2.43089 152.693C0.438275 156.107 0.464857 160.465 2.49897 163.854L18.5708 190.632C25.7874 202.656 38.0011 209.786 51.2427 209.705L67.116 209.609L48.6777 309.799C47.6466 315.401 51.0083 320.852 56.1862 321.973C61.3527 323.093 66.3952 319.471 67.4281 313.859L86.6349 209.49L212.235 208.723L232.714 312.852C233.675 317.738 237.676 321.081 242.116 321.054C248.198 321.017 252.67 314.953 251.413 308.563L231.754 208.604L247.627 208.508C260.869 208.427 272.994 201.148 280.064 189.037L295.808 162.065C297.8 158.651 297.774 154.293 295.74 150.904V150.904ZM148.291 21.5947C193.158 21.3211 230.44 57.9482 235.503 105.123L62.104 106.181C66.5926 58.9476 103.425 21.8684 148.291 21.5947V21.5947ZM263.898 177.975C260.324 184.097 254.195 187.776 247.501 187.817C241.046 187.856 60.611 188.957 51.1165 189.014C44.4228 189.055 38.2494 185.451 34.6013 179.373L21.8661 158.155L34.3415 136.784C37.9146 130.662 44.0442 126.982 50.7379 126.942L247.123 125.744C253.816 125.703 259.99 129.307 263.638 135.385L276.372 156.603L263.898 177.975ZM168.238 157.263C168.307 168.672 159.788 178.006 149.246 178.07C138.704 178.134 130.071 168.905 130.002 157.496C129.932 146.087 138.452 136.752 148.993 136.688C159.535 136.624 168.168 145.853 168.238 157.263V157.263ZM101.325 157.671C101.394 169.08 92.8746 178.414 82.3328 178.478C71.7911 178.543 63.1582 169.313 63.0886 157.904C63.019 146.495 71.5386 137.161 82.0804 137.096C92.6222 137.032 101.255 146.262 101.325 157.671V157.671ZM235.15 156.854C235.22 168.263 226.7 177.598 216.159 177.662C205.617 177.726 196.984 168.497 196.915 157.088C196.845 145.678 205.365 136.344 215.906 136.28C226.448 136.216 235.081 145.445 235.15 156.854V156.854ZM92.0999 68.5404C97.8722 60.4593 104.938 53.7839 113.101 48.6989C117.674 45.8505 123.52 47.5549 126.156 52.5087C128.793 57.4612 127.223 63.7856 122.649 66.6347C116.658 70.3667 111.47 75.2693 107.23 81.2052C104.003 85.7228 98.0009 86.5528 93.8207 83.0542C89.6434 79.5569 88.8725 73.0586 92.0999 68.5404V68.5404ZM131.614 234.196L127.142 284.659C126.637 290.359 121.95 294.514 116.714 293.959C111.459 293.408 107.607 288.351 108.111 282.664L112.583 232.2C113.087 226.514 117.757 222.343 123.011 222.901C128.266 223.451 132.118 228.508 131.614 234.196ZM188.796 302.908C189.347 308.591 185.537 313.677 180.286 314.268C175.015 314.855 170.331 310.712 169.782 305.046L169.468 301.804C168.917 296.121 172.727 291.036 177.978 290.445C183.233 289.863 187.931 293.983 188.482 299.666L188.796 302.908ZM166.118 267.236L162.769 232.668C162.218 226.985 166.028 221.899 171.279 221.309C176.53 220.724 181.232 224.847 181.783 230.53L185.132 265.098C185.683 270.781 181.873 275.866 176.622 276.457C171.351 277.045 166.667 272.902 166.118 267.236Z" fill="#E6495A"/>
<g clip-path="url(#clip1)">
<path d="M203.023 229.938L202.994 294.825L93.5841 294.871L93.6137 229.984C93.6162 224.288 97.9778 219.668 103.353 219.666L193.293 219.628C198.668 219.626 203.026 224.241 203.023 229.938Z" fill="#DCF2EA"/>
<path d="M203.024 229.938L202.994 294.825L148.289 294.848L148.324 219.647L193.294 219.628C198.669 219.626 203.026 224.242 203.024 229.938V229.938Z" fill="#B5E5D3"/>
<path d="M212.884 293.733L212.877 307.51C212.875 312.952 208.709 317.367 203.574 317.369L92.9841 317.416C87.8495 317.418 83.6871 313.007 83.6896 307.565L83.6959 293.787C83.6965 292.306 84.8319 291.102 86.2302 291.102L129.566 291.083L148.287 299.392L167.016 291.068L210.352 291.049C211.75 291.049 212.884 292.251 212.884 293.733V293.733Z" fill="#44446B"/>
<path d="M212.884 293.733L212.877 307.511C212.875 312.953 208.709 317.368 203.574 317.37L148.279 317.393L148.287 299.393L167.016 291.068L210.352 291.05C211.75 291.049 212.884 292.252 212.884 293.733V293.733Z" fill="#35355E"/>
<path d="M167.016 291.068L167.012 298.775C167.011 301.788 164.707 304.229 161.865 304.23L134.705 304.242C131.863 304.243 129.562 301.803 129.563 298.791L129.566 291.084L167.016 291.068Z" fill="#FF3369"/>
<path d="M167.015 291.068L167.011 298.775C167.01 301.788 164.706 304.229 161.864 304.23L148.285 304.236L148.291 291.076L167.015 291.068Z" fill="#E6495A"/>
<path d="M129.545 257.943L128.397 257.943L128.4 251.358C128.401 249.134 126.701 247.331 124.603 247.332C122.504 247.333 120.802 249.137 120.801 251.361L120.798 257.946L115.751 257.949L117.557 245.564C117.877 243.366 116.456 241.31 114.382 240.973C112.309 240.636 110.367 242.143 110.047 244.341L107.565 261.366C107.396 262.527 107.713 263.709 108.435 264.6C109.156 265.492 110.209 266.005 111.318 266.004L120.794 266L120.793 269.249C120.792 271.473 122.492 273.276 124.591 273.275C126.689 273.274 128.391 271.47 128.392 269.246L128.394 265.997L129.542 265.997C131.64 265.996 133.342 264.192 133.343 261.968C133.344 259.744 131.644 257.942 129.545 257.943Z" fill="#FF3369"/>
<path d="M148.898 240.91L147.728 240.911C142.298 240.913 137.873 245.599 137.87 251.358L137.865 263.146C137.862 268.904 142.283 273.587 147.713 273.585L148.884 273.584C154.314 273.582 158.739 268.896 158.742 263.137L158.747 251.349C158.75 245.591 154.329 240.908 148.898 240.91ZM151.143 263.14C151.142 264.458 150.128 265.53 148.887 265.531L147.717 265.531C146.476 265.532 145.463 264.461 145.464 263.143L145.469 251.355C145.47 250.039 146.483 248.965 147.725 248.964L148.895 248.964C150.136 248.963 151.149 250.037 151.148 251.352L151.143 263.14Z" fill="#FF3369"/>
<path d="M158.748 251.349L158.742 263.137C158.74 268.896 154.315 273.582 148.884 273.584L148.299 273.585L148.303 265.531L148.888 265.531C150.129 265.53 151.143 264.458 151.143 263.14L151.149 251.352C151.149 250.037 150.137 248.963 148.895 248.964L148.31 248.964L148.314 240.91L148.899 240.91C154.33 240.908 158.75 245.591 158.748 251.349Z" fill="#E6495A"/>
<path d="M185.289 257.919L184.141 257.919L184.144 251.334C184.145 249.11 182.444 247.308 180.346 247.308C178.247 247.309 176.545 249.113 176.544 251.337L176.541 257.923L171.495 257.925L173.3 245.54C173.62 243.342 172.199 241.286 170.125 240.949C168.051 240.612 166.11 242.119 165.79 244.318L163.308 261.342C162.953 263.779 164.733 265.981 167.061 265.98L176.537 265.976L176.536 269.226C176.535 271.45 178.235 273.252 180.334 273.251C182.432 273.25 184.134 271.446 184.135 269.222L184.137 265.973L185.285 265.973C187.383 265.972 189.085 264.168 189.086 261.944C189.087 259.72 187.387 257.918 185.289 257.919Z" fill="#E6495A"/>
</g>
</g>
<defs>
<clipPath id="clip0">
<path d="M0 1.8075L296.33 3.35064e-05L298.287 320.712L1.95617 322.519L0 1.8075Z" fill="white"/>
</clipPath>
<clipPath id="clip1">
<rect width="129.188" height="136.915" transform="matrix(1 -0.000423526 -0.000455129 1 83.7385 200.09)" fill="white"/>
</clipPath>
</defs>
</svg>
